<svg width="42" height="40" viewBox="0 0 42 40" fill="none" xmlns="http://www.w3.org/2000/svg">
<g id="Group 2">
<g id="Group 1">
<g id="Clip path group">
<mask id="mask0_1_25" style="mask-type:luminance" maskUnits="userSpaceOnUse" x="0" y="0" width="42" height="40">
<g id="669beeed42">
<path id="Vector" d="M0 0.231934H42V39.7501H0V0.231934Z" fill="white"/>
</g>
</mask>
<g mask="url(#mask0_1_25)">
<g id="Group">
<g id="Clip path group_2">
<mask id="mask1_1_25" style="mask-type:luminance" maskUnits="userSpaceOnUse" x="0" y="0" width="42" height="40">
<g id="0f3413224c">
<path id="Vector_2" d="M20.9995 0.231934C9.40261 0.231934 0 9.07821 0 19.991C0 30.9039 9.40261 39.7501 20.9995 39.7501C32.5974 39.7501 42 30.9039 42 19.991C42 9.07821 32.5974 0.231934 20.9995 0.231934Z" fill="white"/>
</g>
</mask>
<g mask="url(#mask1_1_25)">
<g id="Group_2">
<path id="Vector_3" d="M0 0.231934H42V39.7501H0V0.231934Z" fill="#343434"/>
</g>
</g>
</g>
</g>
</g>
</g>
<g id="Clip path group_3">
<mask id="mask2_1_25" style="mask-type:luminance" maskUnits="userSpaceOnUse" x="1" y="1" width="40" height="38">
<g id="c9d5d3f4a0">
<path id="Vector_4" d="M1.59961 1.7373H40.4001V38.246H1.59961V1.7373Z" fill="white"/>
</g>
</mask>
<g mask="url(#mask2_1_25)">
<g id="Group_3">
<g id="Clip path group_4">
<mask id="mask3_1_25" style="mask-type:luminance" maskUnits="userSpaceOnUse" x="1" y="1" width="40" height="38">
<g id="655fd9b46e">
<path id="Vector_5" d="M21.0004 1.7373C10.2858 1.7373 1.59961 9.90947 1.59961 19.9912C1.59961 30.0729 10.2858 38.246 21.0004 38.246C31.714 38.246 40.4001 30.0729 40.4001 19.9912C40.4001 9.90947 31.714 1.7373 21.0004 1.7373Z" fill="white"/>
</g>
</mask>
<g mask="url(#mask3_1_25)">
<g id="Group_4">
<path id="Vector_6" d="M1.59961 1.7373H40.4001V38.246H1.59961V1.7373Z" fill="#0EADDF"/>
</g>
</g>
</g>
</g>
</g>
</g>
<g id="Clip path group_5">
<mask id="mask4_1_25" style="mask-type:luminance" maskUnits="userSpaceOnUse" x="4" y="4" width="34" height="32">
<g id="5f599f07a1">
<path id="Vector_7" d="M4.52148 4.48486H37.4786V35.4962H4.52148V4.48486Z" fill="white"/>
</g>
</mask>
<g mask="url(#mask4_1_25)">
<g id="Group_5">
<g id="Clip path group_6">
<mask id="mask5_1_25" style="mask-type:luminance" maskUnits="userSpaceOnUse" x="4" y="4" width="34" height="32">
<g id="86855b3489">
<path id="Vector_8" d="M21.0005 4.48486C11.8987 4.48486 4.52148 11.4272 4.52148 19.9905C4.52148 28.5538 11.8987 35.4962 21.0005 35.4962C30.1014 35.4962 37.4786 28.5538 37.4786 19.9905C37.4786 11.4272 30.1014 4.48486 21.0005 4.48486Z" fill="white"/>
</g>
</mask>
<g mask="url(#mask5_1_25)">
<g id="Group_6">
<path id="Vector_9" d="M4.52148 4.48486H37.4786V35.4962H4.52148V4.48486Z" fill="white"/>
</g>
</g>
</g>
</g>
</g>
</g>
<g id="Clip path group_7">
<mask id="mask6_1_25" style="mask-type:luminance" maskUnits="userSpaceOnUse" x="32" y="14" width="5" height="5">
<g id="cea84b9c38">
<path id="Vector_10" d="M32.5273 14.1614H36.3004V18.6724H32.5273V14.1614Z" fill="white"/>
</g>
</mask>
<g mask="url(#mask6_1_25)">
<g id="Group_7">
<path id="Vector_11" d="M32.5273 14.1614H36.3004V18.6724H32.5273V14.1614Z" fill="white"/>
</g>
</g>
</g>
<g id="Clip path group_8">
<mask id="mask7_1_25" style="mask-type:luminance" maskUnits="userSpaceOnUse" x="29" y="8" width="5" height="5">
<g id="e04e5f0fd5">
<path id="Vector_12" d="M29.3418 8.1792H33.6904V12.993H29.3418V8.1792Z" fill="white"/>
</g>
</mask>
<g mask="url(#mask7_1_25)">
<g id="Group_8">
<g id="Clip path group_9">
<mask id="mask8_1_25" style="mask-type:luminance" maskUnits="userSpaceOnUse" x="29" y="8" width="5" height="5">
<g id="870ffb5998">
<path id="Vector_13" d="M29.4038 9.262L31.0595 8.22778L33.6385 11.8814L31.9828 12.9156L29.4038 9.262Z" fill="white"/>
</g>
</mask>
<g mask="url(#mask8_1_25)">
<g id="Group_9">
<g id="Clip path group_10">
<mask id="mask9_1_25" style="mask-type:luminance" maskUnits="userSpaceOnUse" x="29" y="8" width="5" height="5">
<g id="ab16aa9967">
<path id="Vector_14" d="M29.4038 9.262L31.0595 8.22778L33.6385 11.8814L31.9828 12.9156L29.4038 9.262Z" fill="white"/>
</g>
</mask>
<g mask="url(#mask9_1_25)">
<g id="Group_10">
<path id="Vector_15" d="M29.4038 9.262L31.0595 8.22778L33.6385 11.8814L31.9828 12.9156L29.4038 9.262Z" fill="white"/>
</g>
</g>
</g>
</g>
</g>
</g>
</g>
</g>
</g>
<g id="Clip path group_11">
<mask id="mask10_1_25" style="mask-type:luminance" maskUnits="userSpaceOnUse" x="30" y="17" width="7" height="4">
<g id="45dafabde7">
<path id="Vector_16" d="M30.1968 17.9382H36.301V20.9854H30.1968V17.9382Z" fill="white"/>
</g>
</mask>
<g mask="url(#mask10_1_25)">
<g id="Group_11">
<path id="Vector_17" d="M36.301 17.9382V20.9854H30.1968V17.9382H36.301Z" fill="#0BA2D2"/>
</g>
</g>
</g>
<path id="Vector_18" d="M17.4768 18.07V12.0293H13.5259V21.7876H24.5142V27.9449H28.4641V18.07H17.4768Z" fill="#0BA2D2"/>
<g id="Clip path group_12">
<mask id="mask11_1_25" style="mask-type:luminance" maskUnits="userSpaceOnUse" x="5" y="5" width="24" height="27">
<g id="2adfd82338">
<path id="Vector_19" d="M5.69971 5.59399H28.5747V31.5245H5.69971V5.59399Z" fill="white"/>
</g>
</mask>
<g mask="url(#mask11_1_25)">
<g id="Group_12">
<path id="Vector_20" d="M20.9948 8.61351C22.2188 8.61351 23.3999 8.7865 24.514 9.10523V16.7904H28.4649V7.4204C27.7794 7.05937 27.062 6.74816 26.3166 6.48773V6.48491C26.2417 6.45858 26.1657 6.43414 26.0898 6.40875C26.0748 6.40311 26.0588 6.39841 26.0438 6.39277C25.8929 6.34388 25.742 6.29687 25.5892 6.25174C25.5612 6.24328 25.5322 6.23482 25.5042 6.22635C25.3494 6.18217 25.1935 6.13798 25.0356 6.09755C25.0356 6.09755 25.0356 6.09755 25.0346 6.09755C24.8767 6.05712 24.7169 6.01951 24.557 5.98378C24.542 5.98002 24.528 5.97626 24.514 5.97344C23.3839 5.72335 22.2058 5.58984 20.9948 5.58984C12.5454 5.58984 5.6958 12.0349 5.6958 19.9852C5.6958 24.5808 7.986 28.6744 11.5502 31.3098V27.078C9.8985 25.1327 8.91027 22.6675 8.91027 19.9852C8.91027 13.7047 14.321 8.61351 20.9948 8.61351Z" fill="#404251"/>
</g>
</g>
</g>
<g id="Clip path group_13">
<mask id="mask12_1_25" style="mask-type:luminance" maskUnits="userSpaceOnUse" x="13" y="8" width="24" height="27">
<g id="1bc237d734">
<path id="Vector_21" d="M13.4829 8.41943H36.3959V34.4139H13.4829V8.41943Z" fill="white"/>
</g>
</mask>
<g mask="url(#mask12_1_25)">
<g id="Group_13">
<path id="Vector_22" d="M30.2677 8.53711V12.6956C32.0233 14.6691 33.0805 17.2113 33.0805 19.9868C33.0805 26.2663 27.6698 31.3575 20.995 31.3575C19.771 31.3575 18.5899 31.1854 17.4768 30.8677V23.1806H13.5259V32.5506C14.1574 32.8844 14.8179 33.1758 15.5013 33.4231V33.424C15.6282 33.4711 15.7571 33.5143 15.886 33.5576C15.926 33.5707 15.966 33.5839 16.0049 33.597C16.1288 33.6365 16.2537 33.676 16.3786 33.7127C16.4066 33.7211 16.4326 33.7296 16.4596 33.7371C16.6055 33.7794 16.7513 33.8199 16.8992 33.8584C16.9392 33.8688 16.9782 33.8782 17.0181 33.8885C17.169 33.927 17.3209 33.9637 17.4738 33.9976C17.4748 33.9985 17.4758 33.9985 17.4768 33.9985C18.6059 34.2486 19.784 34.3812 20.995 34.3812C29.4444 34.3812 36.294 27.9371 36.294 19.9868C36.294 15.3168 33.9298 11.1668 30.2677 8.53711Z" fill="#0BA2D2"/>
</g>
</g>
</g>
<g id="Clip path group_14">
<mask id="mask13_1_25" style="mask-type:luminance" maskUnits="userSpaceOnUse" x="31" y="13" width="6" height="6">
<g id="109dd40cc0">
<path id="Vector_23" d="M31.3877 13.9546H36.5037V18.0463H31.3877V13.9546Z" fill="white"/>
</g>
</mask>
<g mask="url(#mask13_1_25)">
<g id="Group_14">
<g id="Clip path group_15">
<mask id="mask14_1_25" style="mask-type:luminance" maskUnits="userSpaceOnUse" x="31" y="14" width="6" height="4">
<g id="9df3327b04">
<path id="Vector_24" d="M31.5327 14.2575L36.215 14.1616L36.3 17.8434L31.6176 17.9384L31.5327 14.2575Z" fill="white"/>
</g>
</mask>
<g mask="url(#mask14_1_25)">
<g id="Group_15">
<g id="Clip path group_16">
<mask id="mask15_1_25" style="mask-type:luminance" maskUnits="userSpaceOnUse" x="31" y="14" width="6" height="4">
<g id="1331f0cec0">
<path id="Vector_25" d="M31.5327 14.2575L36.215 14.1616L36.3 17.8434L31.6176 17.9384L31.5327 14.2575Z" fill="white"/>
</g>
</mask>
<g mask="url(#mask15_1_25)">
<g id="Group_16">
<path id="Vector_26" d="M31.5327 14.2575L36.215 14.1616L36.3 17.8434L31.6176 17.9384L31.5327 14.2575Z" fill="white"/>
</g>
</g>
</g>
</g>
</g>
</g>
</g>
</g>
</g>
<g id="Clip path group_17">
<mask id="mask16_1_25" style="mask-type:luminance" maskUnits="userSpaceOnUse" x="28" y="9" width="8" height="8">
<g id="65209427a5">
<path id="Vector_27" d="M28.5747 9.14087H35.9929V16.8429H28.5747V9.14087Z" fill="white"/>
</g>
</mask>
<g mask="url(#mask16_1_25)">
<g id="Group_17">
<g id="Clip path group_18">
<mask id="mask17_1_25" style="mask-type:luminance" maskUnits="userSpaceOnUse" x="28" y="9" width="8" height="8">
<g id="3d7cdbd742">
<path id="Vector_28" d="M32.5228 9.3501L35.8172 14.7111L31.9472 16.8162L28.6528 11.4561L32.5228 9.3501Z" fill="white"/>
</g>
</mask>
<g mask="url(#mask17_1_25)">
<g id="Group_18">
<g id="Clip path group_19">
<mask id="mask18_1_25" style="mask-type:luminance" maskUnits="userSpaceOnUse" x="28" y="9" width="8" height="8">
<g id="529576a1a9">
<path id="Vector_29" d="M32.5228 9.3501L35.8172 14.7111L31.9472 16.8162L28.6528 11.4561L32.5228 9.3501Z" fill="white"/>
</g>
</mask>
<g mask="url(#mask18_1_25)">
<g id="Group_19">
<path id="Vector_30" d="M32.5228 9.3501L35.8172 14.7111L31.9472 16.8162L28.6528 11.4561L32.5228 9.3501Z" fill="white"/>
</g>
</g>
</g>
</g>
</g>
</g>
</g>
</g>
</g>
<g id="Clip path group_20">
<mask id="mask19_1_25" style="mask-type:luminance" maskUnits="userSpaceOnUse" x="28" y="7" width="6" height="7">
<g id="3276c4a3b4">
<path id="Vector_31" d="M28.5747 7.93848H33.6907V13.2336H28.5747V7.93848Z" fill="white"/>
</g>
</mask>
<g mask="url(#mask19_1_25)">
<g id="Group_20">
<g id="Clip path group_21">
<mask id="mask20_1_25" style="mask-type:luminance" maskUnits="userSpaceOnUse" x="28" y="8" width="6" height="6">
<g id="690e6ac3cb">
<path id="Vector_32" d="M28.6538 9.48796L31.2668 8.03442L33.542 11.6551L30.929 13.1086L28.6538 9.48796Z" fill="white"/>
</g>
</mask>
<g mask="url(#mask20_1_25)">
<g id="Group_21">
<g id="Clip path group_22">
<mask id="mask21_1_25" style="mask-type:luminance" maskUnits="userSpaceOnUse" x="28" y="8" width="6" height="6">
<g id="e8e052ce28">
<path id="Vector_33" d="M28.6538 9.48796L31.2668 8.03442L33.542 11.6551L30.929 13.1086L28.6538 9.48796Z" fill="white"/>
</g>
</mask>
<g mask="url(#mask21_1_25)">
<g id="Group_22">
<path id="Vector_34" d="M28.6538 9.48796L31.2668 8.03442L33.542 11.6551L30.929 13.1086L28.6538 9.48796Z" fill="white"/>
</g>
</g>
</g>
</g>
</g>
</g>
</g>
</g>
</g>
</g>
</g>
</svg>
